<svg xmlns="http://www.w3.org/2000/svg" viewBox="0 0 1200 760" role="img" aria-label="Sea Ray 400 SLX placeholder"><defs><linearGradient id="sky" x1="0" y1="0" x2="0" y2="1"><stop offset="0" stop-color="#ffe0a3"/><stop offset=".5" stop-color="#f0a44f"/><stop offset="1" stop-color="#123447"/></linearGradient><linearGradient id="water" x1="0" y1="0" x2="1" y2="1"><stop offset="0" stop-color="#0f6177"/><stop offset="1" stop-color="#071923"/></linearGradient><filter id="s"><feDropShadow dx="0" dy="20" stdDeviation="18" flood-color="#071923" flood-opacity=".34"/></filter></defs><rect width="1200" height="760" fill="url(#sky)"/><circle cx="180" cy="165" r="70" fill="#ffeab9" opacity=".8"/><path d="M0 418 C230 392 390 450 630 418 S980 390 1200 432 L1200 760 L0 760Z" fill="url(#water)"/><g opacity=".24" stroke="#fff" stroke-width="5" fill="none"><path d="M0 540 C180 510 340 565 530 540 S880 514 1200 550"/><path d="M80 642 C250 615 430 662 630 632 S980 610 1200 638"/></g><g filter="url(#s)"><path d="M205 512 C360 434 610 405 890 433 C990 443 1064 476 1095 515 C920 577 435 580 205 512Z" fill="#fbfbf8"/><path d="M365 494 C520 453 705 444 925 472 C815 520 520 528 365 494Z" fill="#e8eef1"/><path d="M510 426 C615 342 785 340 938 440" fill="none" stroke="#fbfbf8" stroke-width="20" stroke-linecap="round"/><path d="M538 414 C655 345 778 350 908 430" fill="none" stroke="#132f40" stroke-width="22" stroke-linecap="round"/><path d="M460 488 L900 493" stroke="#102e3f" stroke-width="19" stroke-linecap="round"/><ellipse cx="575" cy="493" rx="40" ry="16" fill="#102e3f"/><ellipse cx="700" cy="493" rx="40" ry="16" fill="#102e3f"/><ellipse cx="820" cy="493" rx="40" ry="16" fill="#102e3f"/></g></svg>