<svg xmlns="http://www.w3.org/2000/svg" viewBox="0 0 1200 760" role="img" aria-label="Sea Ray 350 SLX placeholder"><defs><linearGradient id="sky" x1="0" y1="0" x2="0" y2="1"><stop offset="0" stop-color="#7ca5c0"/><stop offset=".55" stop-color="#d8e8ea"/><stop offset="1" stop-color="#c7a56d"/></linearGradient><linearGradient id="rock" x1="0" y1="0" x2="1" y2="1"><stop offset="0" stop-color="#6a6559"/><stop offset="1" stop-color="#2e4638"/></linearGradient><linearGradient id="water" x1="0" y1="0" x2="1" y2="1"><stop offset="0" stop-color="#0e5b75"/><stop offset="1" stop-color="#082d41"/></linearGradient><filter id="s"><feDropShadow dx="0" dy="18" stdDeviation="15" flood-color="#05202f" flood-opacity=".3"/></filter></defs><rect width="1200" height="760" fill="url(#sky)"/><path d="M0 300 C160 210 285 250 380 190 C520 105 690 198 820 150 C980 92 1100 170 1200 132 L1200 455 L0 455Z" fill="url(#rock)" opacity=".78"/><path d="M0 430 C200 394 360 452 600 420 S970 390 1200 432 L1200 760 L0 760Z" fill="url(#water)"/><g filter="url(#s)"><path d="M190 510 C340 438 575 412 850 430 C950 437 1025 470 1060 512 C900 566 420 570 190 510Z" fill="#fafafa"/><path d="M360 491 C505 453 680 445 895 470 C800 512 520 524 360 491Z" fill="#e8eef1"/><path d="M500 430 C610 355 755 354 892 432" fill="none" stroke="#f8f8f3" stroke-width="18" stroke-linecap="round"/><path d="M520 419 C635 350 748 354 870 421" fill="none" stroke="#152f3f" stroke-width="20" stroke-linecap="round"/><path d="M455 487 L850 490" stroke="#102e3f" stroke-width="18" stroke-linecap="round"/><ellipse cx="565" cy="493" rx="38" ry="15" fill="#102e3f"/><ellipse cx="690" cy="493" rx="38" ry="15" fill="#102e3f"/><path d="M880 461 C940 475 994 494 1030 512" stroke="#f8f8f3" stroke-width="12" stroke-linecap="round"/></g></svg>