<svg xmlns="http://www.w3.org/2000/svg" viewBox="0 0 1200 760" role="img" aria-label="Sea Ray 450 Sundancer placeholder"><defs><linearGradient id="sky" x1="0" y1="0" x2="0" y2="1"><stop offset="0" stop-color="#8fc8ea"/><stop offset=".55" stop-color="#dff1f8"/><stop offset="1" stop-color="#b7d1d7"/></linearGradient><linearGradient id="water" x1="0" y1="0" x2="1" y2="1"><stop offset="0" stop-color="#0e6480"/><stop offset="1" stop-color="#0a3045"/></linearGradient><filter id="s"><feDropShadow dx="0" dy="20" stdDeviation="18" flood-color="#071923" flood-opacity=".3"/></filter></defs><rect width="1200" height="760" fill="url(#sky)"/><path d="M0 420 C180 390 360 450 590 418 S960 386 1200 430 L1200 760 L0 760Z" fill="url(#water)"/><g opacity=".24" stroke="#fff" stroke-width="5" fill="none"><path d="M0 532 C190 500 360 565 550 534 S870 500 1200 540"/><path d="M100 635 C270 608 450 652 650 630 S980 605 1200 635"/></g><g filter="url(#s)"><path d="M170 515 C315 435 520 395 800 408 C960 416 1066 456 1110 513 C990 586 365 592 170 515Z" fill="#f8f7f1"/><path d="M330 488 C465 446 660 426 835 438 C942 445 1024 472 1060 505 C900 540 510 535 330 488Z" fill="#e7edf0"/><path d="M470 420 L655 292 L930 340 L1020 445 Z" fill="#fbfbf8"/><path d="M545 393 L675 318 L895 354 L952 425 Z" fill="#143346"/><path d="M615 302 C667 220 800 225 855 342" fill="none" stroke="#fbfbf8" stroke-width="24" stroke-linecap="round"/><path d="M630 292 L895 336" stroke="#102b3b" stroke-width="18" stroke-linecap="round"/><rect x="475" y="463" width="395" height="35" rx="17" fill="#102c3c"/><ellipse cx="558" cy="498" rx="45" ry="18" fill="#102c3c"/><ellipse cx="704" cy="498" rx="45" ry="18" fill="#102c3c"/><ellipse cx="846" cy="498" rx="45" ry="18" fill="#102c3c"/><path d="M914 445 L1010 492" stroke="#f0f2f2" stroke-width="12" stroke-linecap="round"/></g></svg>