<svg xmlns="http://www.w3.org/2000/svg" viewBox="0 0 1200 760" role="img" aria-label="Sea Ray 450 Sundancer placeholder"><defs><linearGradient id="sky" x1="0" y1="0" x2="0" y2="1"><stop offset="0" stop-color="#aac7d9"/><stop offset=".55" stop-color="#f4c37a"/><stop offset="1" stop-color="#173947"/></linearGradient><linearGradient id="water" x1="0" y1="0" x2="1" y2="1"><stop offset="0" stop-color="#123b4d"/><stop offset="1" stop-color="#071923"/></linearGradient><filter id="s"><feDropShadow dx="0" dy="20" stdDeviation="18" flood-color="#071923" flood-opacity=".35"/></filter></defs><rect width="1200" height="760" fill="url(#sky)"/><circle cx="930" cy="150" r="58" fill="#ffd28a" opacity=".82"/><path d="M0 420 C220 390 400 445 650 410 S1000 395 1200 430 L1200 760 L0 760Z" fill="url(#water)"/><path d="M0 555 C160 525 320 580 500 552 S820 522 1200 568" stroke="#fff" stroke-opacity=".22" stroke-width="6" fill="none"/><g filter="url(#s)"><path d="M175 515 C310 440 500 397 768 410 C916 417 1040 454 1090 512 C982 576 368 588 175 515Z" fill="#f8f7f1"/><path d="M335 488 C445 448 615 428 795 440 C910 448 995 472 1034 505 C872 535 514 532 335 488Z" fill="#e7edf0"/><path d="M468 418 L650 294 L910 342 L1000 444 Z" fill="#fbfbf8"/><path d="M540 395 L665 319 L875 354 L932 426 Z" fill="#143346"/><path d="M610 302 C660 220 790 226 844 342" fill="none" stroke="#fbfbf8" stroke-width="24" stroke-linecap="round"/><path d="M625 292 L882 336" stroke="#102b3b" stroke-width="18" stroke-linecap="round"/><rect x="485" y="463" width="360" height="35" rx="17" fill="#102c3c"/><ellipse cx="558" cy="498" rx="45" ry="18" fill="#102c3c"/><ellipse cx="696" cy="498" rx="45" ry="18" fill="#102c3c"/><path d="M898 445 L986 490" stroke="#f0f2f2" stroke-width="12" stroke-linecap="round"/></g></svg>