<svg xmlns="http://www.w3.org/2000/svg" viewBox="0 0 1200 760" role="img" aria-label="Sea Ray 400 Express Cruiser placeholder"><defs><linearGradient id="sky" x1="0" y1="0" x2="0" y2="1"><stop offset="0" stop-color="#7fc0e8"/><stop offset="0.52" stop-color="#d7eef8"/><stop offset="1" stop-color="#f2dfbd"/></linearGradient><linearGradient id="water" x1="0" y1="0" x2="1" y2="1"><stop offset="0" stop-color="#0b516a"/><stop offset="1" stop-color="#073047"/></linearGradient><filter id="s" x="-20%" y="-20%" width="140%" height="140%"><feDropShadow dx="0" dy="18" stdDeviation="16" flood-color="#05202f" flood-opacity=".28"/></filter></defs><rect width="1200" height="760" fill="url(#sky)"/><circle cx="165" cy="150" r="62" fill="#fff2c7" opacity=".9"/><path d="M0 430 C180 400 320 452 500 420 S860 390 1200 430 L1200 760 L0 760Z" fill="url(#water)"/><g opacity=".23" stroke="#fff" stroke-width="4" fill="none"><path d="M40 520 C180 500 300 545 450 520 S760 495 940 520 1120 545 1200 525"/><path d="M0 620 C190 590 310 645 500 620 S850 600 1200 630"/></g><g filter="url(#s)"><path d="M245 505 C350 438 520 405 720 415 C850 421 944 454 1002 507 C866 552 450 568 245 505Z" fill="#f8faf8"/><path d="M330 505 C410 458 544 438 720 445 C814 449 887 470 942 503 C804 532 486 535 330 505Z" fill="#e8eef1"/><path d="M453 422 L612 334 L805 356 L885 432 Z" fill="#f5f7f7"/><path d="M510 402 L618 349 L776 369 L824 420 Z" fill="#19384b" opacity=".9"/><path d="M460 436 L820 444" stroke="#c8d6dc" stroke-width="12"/><path d="M395 493 L915 493" stroke="#0a2938" stroke-width="20" stroke-linecap="round"/><ellipse cx="540" cy="492" rx="42" ry="17" fill="#102e3f"/><ellipse cx="655" cy="492" rx="42" ry="17" fill="#102e3f"/><path d="M626 338 C655 270 735 270 770 355" fill="none" stroke="#f8faf8" stroke-width="22" stroke-linecap="round"/><path d="M625 326 L803 347" stroke="#182f3f" stroke-width="16" stroke-linecap="round"/></g></svg>