<svg xmlns="http://www.w3.org/2000/svg" viewBox="0 0 1200 760" role="img" aria-label="Sea Ray 310 SLX placeholder"><defs><linearGradient id="sky" x1="0" y1="0" x2="0" y2="1"><stop offset="0" stop-color="#9fd4f2"/><stop offset="1" stop-color="#e9f6fb"/></linearGradient><linearGradient id="water" x1="0" y1="0" x2="1" y2="1"><stop offset="0" stop-color="#116780"/><stop offset="1" stop-color="#073047"/></linearGradient><filter id="s"><feDropShadow dx="0" dy="18" stdDeviation="14" flood-color="#05202f" flood-opacity=".25"/></filter></defs><rect width="1200" height="760" fill="url(#sky)"/><path d="M0 438 C190 402 390 463 610 425 S980 390 1200 430 L1200 760 L0 760Z" fill="url(#water)"/><g stroke="#fff" stroke-width="5" opacity=".24" fill="none"><path d="M30 540 C220 510 395 570 590 540 S930 515 1190 548"/><path d="M90 630 C260 610 410 650 620 625 S940 600 1120 626"/></g><g filter="url(#s)"><path d="M235 505 C385 438 585 412 844 442 C933 453 1000 480 1035 516 C872 558 448 561 235 505Z" fill="#fafafa"/><path d="M370 492 C515 456 670 447 882 472 C799 512 520 525 370 492Z" fill="#e8eef1"/><path d="M520 430 L670 340 L870 377 L952 468" fill="none" stroke="#121d22" stroke-width="24" stroke-linecap="round"/><path d="M548 435 L678 360 L830 389" fill="none" stroke="#f6f6f2" stroke-width="13" stroke-linecap="round"/><path d="M440 488 L870 492" stroke="#102e3f" stroke-width="18" stroke-linecap="round"/><ellipse cx="560" cy="493" rx="38" ry="16" fill="#102e3f"/><path d="M888 472 C938 480 974 496 1005 516" stroke="#f6f6f2" stroke-width="14" stroke-linecap="round"/></g></svg>